<svg xmlns="http://www.w3.org/2000/svg" viewBox="0 0 54.956 44.879">
  <defs>
    <style>
      .cls-1 {
        fill: #0b5b8d;
      }
    </style>
  </defs>
  <g id="noun_books_137857" transform="translate(-37.521 -35.56)">
    <path id="Path_217" data-name="Path 217" class="cls-1" d="M59.93,32.964a.811.811,0,0,0-.619-.592l-.369-.077V27.129l.6-.515a.809.809,0,0,0-.382-1.412l-3.386-.614v-4.44l.623-.532a.81.81,0,0,0-.382-1.412L28.652,13.265a.8.8,0,0,0-.607.133L6.84,28.186c-.4.222-1.867,1.229-1.84,4.028A5.688,5.688,0,0,0,6.906,36.69c.01.008.022.013.033.02s.037.024.056.035.041.021.062.031a.561.561,0,0,0,.059.024.711.711,0,0,0,.07.021c.013,0,.026.01.04.013l1.252.263a5.888,5.888,0,0,0-.332,2.115,6.31,6.31,0,0,0,.923,3.336l-.97.676c-.4.225-1.867,1.233-1.839,4.028a5.672,5.672,0,0,0,1.907,4.476,1.078,1.078,0,0,0,.318.144L37.192,57.9l.009,0,1.025.215a.81.81,0,0,0,.691-.176L57.786,41.82a.81.81,0,0,0-.36-1.409l-.337-.07V35.987l2.582-2.206A.81.81,0,0,0,59.93,32.964ZM37.006,35.927a.809.809,0,0,0,.526-.194l16.636-14.21v5.145L36.857,41.391v-5.48A.842.842,0,0,0,37.006,35.927ZM8.093,29.877l27.142,5.7V41.05L8.093,35.366V29.877ZM9.352,50.4V44.914l27.142,5.7v5.485Zm1.9-8.033V37.679l24.682,5.179.009,0,1.025.215a.812.812,0,0,0,.692-.176l.449-.384.271.057v5.483Zm44.218-.7L38.122,56.437l-.005-5.488a.772.772,0,0,0,.15.015.808.808,0,0,0,.525-.194l.915-.782.4.085A.81.81,0,0,0,40.8,49.9L55.469,37.364Zm1.883-8.036L40.007,48.4,40,42.91a.828.828,0,0,0,.149.015.811.811,0,0,0,.526-.194L57.354,28.485Z" transform="translate(32.522 22.309)"/>
  </g>
</svg>
