<?xml version="1.0" encoding="utf-8"?>
<!-- Generator: Adobe Illustrator 23.0.0, SVG Export Plug-In . SVG Version: 6.00 Build 0)  -->
<svg version="1.1" id="Layer_1" xmlns="http://www.w3.org/2000/svg" xmlns:xlink="http://www.w3.org/1999/xlink" x="0px" y="0px"
	 viewBox="0 0 682 682" style="enable-background:new 0 0 682 682;" xml:space="preserve">
<style type="text/css">
	.st0{fill:#1F5EA1;}
</style>
<path class="st0" d="M364.6,158.6h-18.7v-18.7h18.7V158.6z M333.3,158.6h-18.7v-18.7h18.7V158.6z"/>
<path class="st0" d="M610.8,641.6H68.3v-408H49.6v426.7h579.9V233.6h-18.7V641.6z"/>
<path class="st0" d="M215.2,158.6l15.2-15.2V36.2L215.2,21h-41.6l-15.2,15.2v107.1l15.2,15.2H215.2z M177.1,44l4.3-4.3h26.1l4.3,4.3
	v91.6l-4.3,4.3h-26.1l-4.3-4.3V44z"/>
<path class="st0" d="M505.6,158.6l15.2-15.2V36.2L505.6,21H464l-15.2,15.2v107.1l15.2,15.2H505.6z M467.5,44l4.3-4.3h26.1l4.3,4.3
	v91.6l-4.3,4.3h-26.1l-4.3-4.3V44z"/>
<path class="st0" d="M536.5,80.4v18.7h74.4v100.1H68.3V99.1h74.4V80.4H49.6V218h579.9V80.4H536.5z"/>
<path class="st0" d="M246,80.4h187.1v18.7H246V80.4z"/>
<path class="st0" d="M449.8,268.3L294.3,423.9L229.3,359l-75.3,75.3l140.2,140.2l230.8-230.8L449.8,268.3z M180.6,434.3l48.8-48.8
	l64.9,64.9l155.6-155.6l48.8,48.8L294.3,548L180.6,434.3z"/>
</svg>
