<?xml version="1.0" encoding="utf-8"?>
<!-- Generator: Adobe Illustrator 23.0.0, SVG Export Plug-In . SVG Version: 6.00 Build 0)  -->
<svg version="1.1" id="Layer_1" xmlns="http://www.w3.org/2000/svg" xmlns:xlink="http://www.w3.org/1999/xlink" x="0px" y="0px"
	 viewBox="0 0 496 496" style="enable-background:new 0 0 496 496;" xml:space="preserve">
<style type="text/css">
	.st0{fill:#1F5EA1;}
</style>
<path class="st0" d="M248,129.1L306.9,80H384V0H192v80h56V129.1z M208,64V16h160v48h-66.9L264,94.9V64H208z"/>
<path class="st0" d="M224,32h16v16h-16V32z"/>
<path class="st0" d="M256,32h64v16h-64V32z"/>
<path class="st0" d="M336,32h16v16h-16V32z"/>
<path class="st0" d="M407.2,480l-6.5-64.8C427.5,411,448,387.9,448,360V256h-32v-11.1c0-10.9-6-20.6-15.6-25.6
	C410,210.5,416,198,416,184v-16c0-26.5-21.5-48-48-48s-48,21.5-48,48v16c0,20.7,13.2,38.3,31.6,45.1L308.7,272h-44.9
	c-0.9-13.3-10.1-25-23-28.7L208,234v-14.3c9.8-8.8,16-21.5,16-35.7v-16c0-26.5-21.5-48-48-48s-48,21.5-48,48v16
	c0,14.2,6.2,26.9,16,35.7V234l-32.8,9.4C97.5,247.2,88,259.9,88,274.1V304H56v48h16v128H0v16h496v-16H407.2z M336,352v-36.7
	l56.7-56.7c4.1-4.1,6.5-9.6,7.1-15.3c0.1,0.6,0.2,1.1,0.2,1.7V344c0,13.2-10.8,24-24,24h-64v-16H336z M312,416h40.8l6.4,64H312V416z
	 M368.8,416h15.9l6.4,64h-15.9L368.8,416z M416,344v-72h16v88c0,22.1-17.9,40-40,40h-80v-16h64C398.1,384,416,366.1,416,344z
	 M336,184v-16c0-17.6,14.4-32,32-32s32,14.4,32,32v16c0,17.6-14.4,32-32,32S336,201.6,336,184z M315.3,288l53.4-53.4
	c1.7-1.7,4-2.6,6.3-2.6c4.9,0,9,4,9,9c0,2.4-1,4.7-2.6,6.3L324.7,304H240c-4.4,0-8-3.6-8-8s3.6-8,8-8H315.3z M144,168
	c0-17.6,14.4-32,32-32s32,14.4,32,32v16c0,17.6-14.4,32-32,32s-32-14.4-32-32V168z M176,232c5.6,0,11-1,16-2.8v8.6
	c-2,3.1-7.5,10.2-16,10.2s-14-7.1-16-10.2v-8.6C165,231,170.4,232,176,232z M104,274.1c0-7.1,4.8-13.4,11.6-15.4l33-9.4
	c4.6,6,13.7,14.7,27.4,14.7s22.8-8.6,27.4-14.7l33,9.4c6.1,1.8,10.4,7.1,11.3,13.3H240c-13.2,0-24,10.8-24,24c0,2.8,0.6,5.5,1.5,8
	H104V274.1z M72,320h248v16H72V320z M88,384h24v-16H88v-16h208v16H128v16h168v96h-19.1l-16-32H123.1l-16,32H88V384z M259.1,480
	H124.9l8-16h118.1L259.1,480z"/>
</svg>
