<?xml version="1.0" encoding="utf-8"?>
<!-- Generator: Adobe Illustrator 23.0.0, SVG Export Plug-In . SVG Version: 6.00 Build 0)  -->
<svg version="1.1" id="Layer_1" xmlns="http://www.w3.org/2000/svg" xmlns:xlink="http://www.w3.org/1999/xlink" x="0px" y="0px"
	 viewBox="0 0 91.8 56.4" style="enable-background:new 0 0 91.8 56.4;" xml:space="preserve">
<style type="text/css">
	.st0{fill:#0B5B8D;}
</style>
<g id="noun_online_course_2094795" transform="translate(-2.344 -21.75)">
	<path id="Path_213" class="st0" d="M83.5,24.5c0-0.5-0.4-0.9-0.9-0.9H13.9c-0.5,0-0.9,0.4-0.9,0.9v46.1h70.5V24.5z M47.6,24.7h1.4
		c0.4,0,0.7,0.3,0.7,0.7c0,0.4-0.3,0.7-0.7,0.7h-1.4c-0.4,0-0.7-0.3-0.7-0.7C46.9,25,47.2,24.7,47.6,24.7z M51.2,69.7h-6
		c-0.4,0-0.7-0.3-0.7-0.7s0.3-0.7,0.7-0.7h6c0.4,0,0.7,0.3,0.7,0.7S51.6,69.7,51.2,69.7L51.2,69.7z M77.6,66.6
		c0,0.4-0.3,0.6-0.6,0.6H19.6c-0.4,0-0.6-0.3-0.6-0.6V27.8c0-0.4,0.3-0.6,0.6-0.6h57.3c0.4,0,0.6,0.3,0.6,0.6L77.6,66.6z"/>
	<path id="Path_214" class="st0" d="M3.8,72.1c0.6,2.3,4,4.2,8,4.2h72.9c4,0,7.4-1.9,8-4.2L3.8,72.1z M13.6,74.8h-1.4
		c-0.3,0-0.6-0.2-0.6-0.6c0-0.3,0.2-0.6,0.6-0.6h1.4c0.3,0,0.6,0.2,0.6,0.6C14.2,74.5,13.9,74.8,13.6,74.8z M18.2,74.8h-1.4
		c-0.3,0-0.6-0.2-0.6-0.6c0-0.3,0.2-0.6,0.6-0.6l0,0h1.4c0.3,0,0.6,0.2,0.6,0.6C18.7,74.5,18.5,74.8,18.2,74.8L18.2,74.8z
		 M22.7,74.8h-1.4c-0.3,0-0.6-0.2-0.6-0.6c0-0.3,0.2-0.6,0.6-0.6h1.4c0.3,0,0.6,0.2,0.6,0.6C23.3,74.5,23,74.8,22.7,74.8L22.7,74.8z
		"/>
	<path id="Path_215" class="st0" d="M24.9,39.9l23.7,8.4l5.4-2.1L47.7,40c-0.3-0.3-0.3-0.8,0-1.1c0.3-0.3,0.8-0.3,1.1,0l6.6,6.6
		l16.3-6.5L48,30.7L24.9,39.9z"/>
	<path id="Path_216" class="st0" d="M55.8,47v4.7l2.3,2.3c0.3,0.3,0.3,0.8,0,1c0,0,0,0,0,0l-2.5,2.5c-0.3,0.3-0.8,0.3-1,0
		c0,0,0,0,0,0L52,55c-0.3-0.3-0.3-0.8,0-1c0,0,0,0,0,0l2.3-2.3v-4.1l-5.5,2.2c-0.1,0-0.2,0.1-0.3,0.1c-0.1,0-0.2,0-0.2,0l-11.6-4.1
		v13.6c0,2,6.1,4.2,11.5,4.2c5.4,0,11.8-2.3,11.8-4.2c0,0,0,0,0,0V45.4L55.8,47z"/>
</g>
</svg>
