<svg xmlns="http://www.w3.org/2000/svg" viewBox="0 0 43.169 56.444">
  <defs>
    <style>
      .cls-1 {
        fill: #fff;
      }
    </style>
  </defs>
  <g id="noun_leader_925240" transform="translate(-7.415 -21.005)">
    <g id="Group_28" data-name="Group 28" transform="translate(-8.169 12.777)">
      <g id="Group_27" data-name="Group 27" transform="translate(15.584 8.228)">
        <path id="Path_211" data-name="Path 211" class="cls-1" d="M58.753,8.229H40.292V29.406H22.1a6.525,6.525,0,0,0-6.517,6.517v11.29A2.85,2.85,0,0,0,18.43,50.06h.685V61.827a2.849,2.849,0,0,0,2.846,2.845h5.384a2.849,2.849,0,0,0,2.846-2.845V35.52h9.435a5.4,5.4,0,0,0,.666-.041V47.534h3.356V33.781A5.489,5.489,0,0,0,45.16,30.09l.013-.684H43.647V20.534H58.752l-4.509-5.95a.338.338,0,0,1,0-.406Z" transform="translate(-15.584 -8.228)"/>
        <path id="Path_212" data-name="Path 212" class="cls-1" d="M26.333,30.84A6.242,6.242,0,1,0,20.091,24.6,6.249,6.249,0,0,0,26.333,30.84Z" transform="translate(-17.264 -12.004)"/>
      </g>
    </g>
  </g>
</svg>
