<svg xmlns="http://www.w3.org/2000/svg" width="58.452" height="58.452" viewBox="0 0 58.452 58.452">
  <g id="noun_Blog_1060036" transform="translate(-9.6 -9.5)">
    <path id="Path_462" data-name="Path 462" d="M10.818,67.452H66.834a.678.678,0,0,0,.718-.718V10.718A.678.678,0,0,0,66.834,10H10.818a.678.678,0,0,0-.718.718V66.734A.72.72,0,0,0,10.818,67.452Zm.718-56.015H66.115V66.015H11.536V11.436Z" fill="#ec9d00" stroke="#ec9d00" stroke-width="1"/>
    <path id="Path_463" data-name="Path 463" d="M38.893,18.1H19.718a.678.678,0,0,0-.718.718V38.352a.678.678,0,0,0,.718.718H38.893a.678.678,0,0,0,.718-.718V18.818A.72.72,0,0,0,38.893,18.1Zm-.718,19.605H20.436V19.536H38.174Z" transform="translate(-2.509 -2.283)" fill="#ec9d00" stroke="#ec9d00" stroke-width="1"/>
    <path id="Path_464" data-name="Path 464" d="M38.893,51.9H19.718a.678.678,0,0,0-.718.718V72.152a.678.678,0,0,0,.718.718H38.893a.678.678,0,0,0,.718-.718V52.618A.72.72,0,0,0,38.893,51.9Zm-.718,19.605H20.436V53.336H38.174Z" transform="translate(-2.509 -11.81)" fill="#ec9d00" stroke="#ec9d00" stroke-width="1"/>
    <path id="Path_465" data-name="Path 465" d="M53.918,19.536H61.53a.718.718,0,0,0,0-1.436H53.918a.678.678,0,0,0-.718.718A.72.72,0,0,0,53.918,19.536Z" transform="translate(-12.148 -2.283)" fill="#ec9d00" stroke="#ec9d00" stroke-width="1"/>
    <path id="Path_466" data-name="Path 466" d="M73.308,24.5H53.918a.718.718,0,1,0,0,1.436h19.39a.718.718,0,1,0,0-1.436Z" transform="translate(-12.148 -4.087)" fill="#ec9d00" stroke="#ec9d00" stroke-width="1"/>
    <path id="Path_467" data-name="Path 467" d="M73.308,31.5H53.918a.718.718,0,1,0,0,1.436h19.39a.718.718,0,1,0,0-1.436Z" transform="translate(-12.148 -6.06)" fill="#ec9d00" stroke="#ec9d00" stroke-width="1"/>
    <path id="Path_468" data-name="Path 468" d="M73.308,38.4H53.918a.718.718,0,1,0,0,1.436h19.39a.718.718,0,1,0,0-1.436Z" transform="translate(-12.148 -8.005)" fill="#ec9d00" stroke="#ec9d00" stroke-width="1"/>
    <path id="Path_469" data-name="Path 469" d="M73.308,45.4H53.918a.718.718,0,1,0,0,1.436h19.39a.718.718,0,1,0,0-1.436Z" transform="translate(-12.148 -9.978)" fill="#ec9d00" stroke="#ec9d00" stroke-width="1"/>
    <path id="Path_470" data-name="Path 470" d="M73.308,58.3H53.918a.718.718,0,1,0,0,1.436h19.39a.718.718,0,1,0,0-1.436Z" transform="translate(-12.148 -13.614)" fill="#ec9d00" stroke="#ec9d00" stroke-width="1"/>
    <path id="Path_471" data-name="Path 471" d="M73.308,65.3H53.918a.718.718,0,1,0,0,1.436h19.39a.718.718,0,1,0,0-1.436Z" transform="translate(-12.148 -15.587)" fill="#ec9d00" stroke="#ec9d00" stroke-width="1"/>
    <path id="Path_472" data-name="Path 472" d="M73.308,72.2H53.918a.718.718,0,1,0,0,1.436h19.39a.718.718,0,1,0,0-1.436Z" transform="translate(-12.148 -17.531)" fill="#ec9d00" stroke="#ec9d00" stroke-width="1"/>
    <path id="Path_473" data-name="Path 473" d="M73.308,79.2H53.918a.718.718,0,1,0,0,1.436h19.39a.718.718,0,1,0,0-1.436Z" transform="translate(-12.148 -19.504)" fill="#ec9d00" stroke="#ec9d00" stroke-width="1"/>
    <path id="Path_474" data-name="Path 474" d="M77.93,18.1H70.318a.718.718,0,1,0,0,1.436H77.93a.718.718,0,1,0,0-1.436Z" transform="translate(-16.77 -2.283)" fill="#ec9d00" stroke="#ec9d00" stroke-width="1"/>
    <path id="Path_475" data-name="Path 475" d="M53.918,53.336H61.53a.718.718,0,0,0,0-1.436H53.918a.678.678,0,0,0-.718.718A.72.72,0,0,0,53.918,53.336Z" transform="translate(-12.148 -11.81)" fill="#ec9d00" stroke="#ec9d00" stroke-width="1"/>
    <path id="Path_476" data-name="Path 476" d="M77.93,51.9H70.318a.718.718,0,0,0,0,1.436H77.93a.718.718,0,0,0,0-1.436Z" transform="translate(-16.77 -11.81)" fill="#ec9d00" stroke="#ec9d00" stroke-width="1"/>
  </g>
</svg>
