<svg xmlns="http://www.w3.org/2000/svg" width="45" height="56" viewBox="0 0 45 56">
  <path id="Path_297" data-name="Path 297" d="M56.778,16.122H20.783a4.339,4.339,0,0,1,0-8.678H56.778a1.222,1.222,0,0,0,0-2.444H20.783A6.807,6.807,0,0,0,14,11.783V46.372A13.563,13.563,0,0,0,27.444,60H56.778A1.226,1.226,0,0,0,58,58.778V17.344A1.226,1.226,0,0,0,56.778,16.122Zm-6.111,2.444V31.644l-2.811-2.811a1.181,1.181,0,0,0-1.711,0l-2.811,2.872V18.567ZM27.444,57.556a11.1,11.1,0,0,1-11-11.122V17.039a6.753,6.753,0,0,0,4.339,1.589H40.889V34.7a1.3,1.3,0,0,0,.733,1.161,1.357,1.357,0,0,0,1.344-.244L47,31.522l4.033,4.094a1.207,1.207,0,0,0,.856.367,1.438,1.438,0,0,0,.489-.122,1.3,1.3,0,0,0,.733-1.161V18.567h2.444V57.556Z" transform="translate(-13.5 -4.5)" fill="#ec9d00" stroke="#ec9d00" stroke-width="1"/>
</svg>
