<svg xmlns="http://www.w3.org/2000/svg" width="38.062" height="37.537" viewBox="0 0 38.062 37.537">
  <g id="noun_call_1199309" transform="translate(-0.025 -0.075)">
    <g id="Group_348" data-name="Group 348" transform="translate(0.025 0.075)">
      <path id="Path_417" data-name="Path 417" d="M31.417,21.654a4.055,4.055,0,0,0-5.335,0L24.176,23.56a.921.921,0,0,1-1.334,0l-8.765-8.574a.921.921,0,0,1,0-1.334l1.905-1.905a3.684,3.684,0,0,0,0-5.335L10.838,1.075a4.055,4.055,0,0,0-5.335,0L3.6,2.981a12.075,12.075,0,0,0,0,17.149l13.91,13.91a12.076,12.076,0,0,0,17.149,0l1.905-1.905a3.684,3.684,0,0,0,0-5.335Zm.762,10.1a8.628,8.628,0,0,1-12,0l-13.91-14.1a8.628,8.628,0,0,1,0-12L8.171,3.743l5.335,5.335L11.6,10.984a4.6,4.6,0,0,0,0,6.669l8.765,8.765a4.966,4.966,0,0,0,6.669,0l1.905-1.905,5.335,5.335Z" transform="translate(-0.025 -0.075)" fill="#ec9d00"/>
      <path id="Path_418" data-name="Path 418" d="M24.248,17.158h3.811A17,17,0,0,0,11.1.2V4.011A13.174,13.174,0,0,1,24.248,17.158Z" transform="translate(10.003 0.038)" fill="#ec9d00"/>
      <path id="Path_419" data-name="Path 419" d="M11.1,4.2V8.011a5.53,5.53,0,0,1,5.526,5.526h3.811A9.116,9.116,0,0,0,11.1,4.2Z" transform="translate(10.003 3.66)" fill="#ec9d00"/>
    </g>
  </g>
</svg>
