<?xml version="1.0" encoding="utf-8"?>
<!-- Generator: Adobe Illustrator 23.0.0, SVG Export Plug-In . SVG Version: 6.00 Build 0)  -->
<svg version="1.1" id="class" xmlns="http://www.w3.org/2000/svg" xmlns:xlink="http://www.w3.org/1999/xlink" x="0px" y="0px"
	 viewBox="0 0 51.6 51.6" style="enable-background:new 0 0 51.6 51.6;" xml:space="preserve">
<style type="text/css">
	.st0{fill:#EC9D00;}
</style>
<g id="Group_213" transform="translate(7.559)">
	<g id="Group_212">
		<path id="Path_352" class="st0" d="M6,0C2.7,0,0,2.8,0,6.1c0,3.3,2.7,6,6,6c3.3,0,6-2.7,6-6C12.1,2.8,9.4,0,6,0z M6,9.2
			c-1.7,0-3-1.4-3-3C3,4.5,4.3,3.1,6,3C7.6,3,9,4.3,9.1,6c0,0.1,0,0.1,0,0.2C9.1,7.8,7.7,9.2,6,9.2z"/>
	</g>
</g>
<g id="Group_215">
	<g id="Group_214">
		<path id="Path_353" class="st0" d="M47.1,0H25.7c-2.5,0-4.5,2-4.5,4.5v10.3l-1.3-1.3c-0.8-0.9-2-1.3-3.2-1.3H7.6
			c-4.2,0-7.6,3.4-7.6,7.6v9.1c0,2.5,2,4.5,4.5,4.5c0.5,0,1-0.1,1.5-0.3v14c0,2.5,2,4.5,4.5,4.5c1.1,0,2.2-0.4,3-1.2
			c1.9,1.7,4.7,1.5,6.4-0.3c0.7-0.8,1.2-1.9,1.2-3v-20c1.2,0.4,2.4,0.3,3.5-0.2l5.1-2.5h17.3c2.5,0,4.5-2,4.5-4.5V4.5
			C51.6,2,49.6,0,47.1,0z M29.4,21.1l-6,3c-0.6,0.3-1.3,0.2-1.7-0.3L20.7,23c-0.6-0.6-1.5-0.6-2.1,0c-0.3,0.3-0.4,0.7-0.4,1.1l0,0
			v23c0,0.8-0.7,1.5-1.6,1.5c-0.8,0-1.5-0.7-1.5-1.5V31.8c0-0.8-0.7-1.5-1.6-1.5c-0.8,0-1.5,0.7-1.5,1.5v15.2c0,0.8-0.6,1.5-1.5,1.6
			c-0.8,0-1.5-0.6-1.6-1.5c0,0,0-0.1,0-0.1V19.8c0-0.8-0.7-1.5-1.6-1.5c-0.8,0-1.5,0.7-1.5,1.5v9.1c0,0.8-0.7,1.5-1.6,1.5
			c-0.8,0-1.5-0.7-1.5-1.5c0-1.1,0-8.1,0-9.1c0-2.5,2-4.5,4.5-4.5h9.1c0.4,0,0.8,0.2,1.1,0.4l4.5,4.5c0.5,0.5,1.2,0.6,1.7,0.3l4.1-2
			c0.7-0.4,1.7-0.1,2,0.7S30.1,20.7,29.4,21.1L29.4,21.1z M48.6,19.8c0,0.8-0.7,1.5-1.5,1.5H33c0,0,0-0.1,0-0.1
			c0.2-0.6,0.3-1.3,0.2-2l8.3-4.1c0.7-0.4,1-1.3,0.6-2.1c-0.4-0.7-1.2-0.9-1.9-0.6l-8.3,4.1c-1.4-1.3-3.5-1.7-5.2-0.8L24.2,17V4.5
			c0-0.8,0.7-1.5,1.5-1.5h21.4c0.8,0,1.5,0.7,1.5,1.5L48.6,19.8z"/>
	</g>
</g>
</svg>
