<svg id="class" xmlns="http://www.w3.org/2000/svg" width="51.601" height="51.601" viewBox="0 0 51.601 51.601">
  <g id="Group_213" data-name="Group 213" transform="translate(7.559)">
    <g id="Group_212" data-name="Group 212">
      <path id="Path_352" data-name="Path 352" d="M81.047,0A6.129,6.129,0,0,0,75,6.148a6.047,6.047,0,0,0,12.094,0A6.129,6.129,0,0,0,81.047,0Zm0,9.171a3.027,3.027,0,0,1-3.023-3.023,3.025,3.025,0,1,1,6.047,0A3.027,3.027,0,0,1,81.047,9.171Z" transform="translate(-75)" fill="#fff"/>
    </g>
  </g>
  <g id="Group_215" data-name="Group 215">
    <g id="Group_214" data-name="Group 214">
      <path id="Path_353" data-name="Path 353" d="M47.066,0H25.7a4.54,4.54,0,0,0-4.535,4.535V14.852l-1.329-1.329a4.505,4.505,0,0,0-3.207-1.329H7.559A7.567,7.567,0,0,0,0,19.753v9.07A4.536,4.536,0,0,0,6.047,33.1V47.066a4.533,4.533,0,0,0,7.559,3.378,4.533,4.533,0,0,0,7.559-3.378V27.055a4.553,4.553,0,0,0,3.54-.221l5.09-2.545H47.066A4.54,4.54,0,0,0,51.6,19.753V4.535A4.54,4.54,0,0,0,47.066,0ZM29.4,21.106l-6.045,3.023a1.511,1.511,0,0,1-1.747-.283l-.885-.886a1.513,1.513,0,0,0-2.581,1.064s0,0,0,0V47.066a1.512,1.512,0,0,1-3.023,0V31.847a1.512,1.512,0,0,0-3.023,0V47.066a1.512,1.512,0,1,1-3.023,0V19.753a1.512,1.512,0,0,0-3.023,0v9.07a1.512,1.512,0,0,1-3.023,0c0-1.14,0-8.139,0-9.07a4.54,4.54,0,0,1,4.535-4.535h9.07a1.5,1.5,0,0,1,1.069.443L22.2,20.167a1.512,1.512,0,0,0,1.745.283l4.1-2.049A1.512,1.512,0,0,1,29.4,21.106Zm19.178-1.352a1.513,1.513,0,0,1-1.512,1.512H33c.009-.026.019-.051.028-.077a4.518,4.518,0,0,0,.2-2l8.267-4.134a1.512,1.512,0,0,0-1.352-2.7l-8.267,4.133a4.531,4.531,0,0,0-5.18-.791L24.188,16.95V4.535A1.513,1.513,0,0,1,25.7,3.023H47.066a1.513,1.513,0,0,1,1.512,1.512Z" fill="#fff"/>
    </g>
  </g>
</svg>
