<svg xmlns="http://www.w3.org/2000/svg" width="64" height="55.1" viewBox="0 0 64 55.1">
  <g id="noun_Meeting_1861139" transform="translate(-1 -5.5)">
    <g id="Group_409" data-name="Group 409">
      <g id="Group_402" data-name="Group 402">
        <path id="Path_477" data-name="Path 477" d="M2.2,26.2a5.7,5.7,0,1,1,11.4,0,5.763,5.763,0,0,1-5.7,5.7A5.763,5.763,0,0,1,2.2,26.2Z" fill="#ec9d00"/>
      </g>
      <g id="Group_403" data-name="Group 403">
        <path id="Path_478" data-name="Path 478" d="M1.6,58.7a2.292,2.292,0,0,0-.2,1.8.842.842,0,0,1-.4-.7V40a6.807,6.807,0,0,1,6.8-6.8,6.735,6.735,0,0,1,4.8,2A7.487,7.487,0,0,1,13.9,37Z" fill="#ec9d00"/>
      </g>
      <g id="Group_404" data-name="Group 404">
        <path id="Path_479" data-name="Path 479" d="M27.9,11.3a5.8,5.8,0,1,1,5.8,5.8A5.8,5.8,0,0,1,27.9,11.3Z" fill="#ec9d00"/>
      </g>
      <g id="Group_405" data-name="Group 405">
        <path id="Path_480" data-name="Path 480" d="M45.6,26.2v2.3H21.8V26.2a8.941,8.941,0,0,1,9-8.9.842.842,0,0,1,.7.4L33.7,22l2.2-4.3a.67.67,0,0,1,.7-.4A8.941,8.941,0,0,1,45.6,26.2Z" fill="#ec9d00"/>
      </g>
      <g id="Group_406" data-name="Group 406">
        <path id="Path_481" data-name="Path 481" d="M64.5,60.2a.842.842,0,0,1-.7.4H3.6a.548.548,0,0,1-.6-.4,1.1,1.1,0,0,1,0-.8l16.5-29a.822.822,0,0,1,.6-.4H47.3a.755.755,0,0,1,.7.4l16.5,29A1.1,1.1,0,0,1,64.5,60.2Z" fill="#ec9d00"/>
      </g>
      <g id="Group_407" data-name="Group 407">
        <path id="Path_482" data-name="Path 482" d="M65,40V57.3L52.8,35.8a6.878,6.878,0,0,1,5.4-2.6,6.568,6.568,0,0,1,4.8,2A6.735,6.735,0,0,1,65,40Z" fill="#ec9d00"/>
      </g>
      <g id="Group_408" data-name="Group 408">
        <path id="Path_483" data-name="Path 483" d="M52.5,26.2a5.7,5.7,0,0,1,5.7-5.7,5.763,5.763,0,0,1,5.7,5.7,5.7,5.7,0,0,1-11.4,0Z" fill="#ec9d00"/>
      </g>
    </g>
  </g>
</svg>
