<?xml version="1.0" encoding="utf-8"?>
<!-- Generator: Adobe Illustrator 23.0.0, SVG Export Plug-In . SVG Version: 6.00 Build 0)  -->
<svg version="1.1" id="Layer_1" xmlns="http://www.w3.org/2000/svg" xmlns:xlink="http://www.w3.org/1999/xlink" x="0px" y="0px"
	 viewBox="0 0 100 79.8" style="enable-background:new 0 0 100 79.8;" xml:space="preserve">
<style type="text/css">
	.st0{fill:#A3A3A3;}
</style>
<title>Artboard 86</title>
<path class="st0" d="M83.9,6.1H16.1c-7.5,0-13.6,6.1-13.6,13.6h95C97.5,12.1,91.4,6.1,83.9,6.1z"/>
<path class="st0" d="M2.5,33.2v27.2c0,7.5,6.1,13.6,13.6,13.6h67.9c7.5,0,13.6-6.1,13.6-13.6V33.2H2.5z M39.8,53.6
	c-1.9,0-3.4-1.5-3.4-3.4c-0.1,1.9-1.7,3.3-3.6,3.2c-1.7-0.1-3.1-1.5-3.2-3.2c0,1.9-1.5,3.4-3.4,3.4c-1.9,0-3.4-1.5-3.4-3.4
	c0,1.9-1.5,3.4-3.4,3.4c-1.9,0-3.4-1.5-3.4-3.4c0-1.9,1.5-3.4,3.4-3.4c0,0,0,0,0,0c1.9,0,3.4,1.5,3.4,3.4c0-1.9,1.5-3.4,3.4-3.4
	c1.9,0,3.4,1.5,3.4,3.4c0.1-1.9,1.7-3.3,3.6-3.2c1.7,0.1,3.1,1.5,3.2,3.2c0-1.9,1.5-3.4,3.4-3.4s3.4,1.5,3.4,3.4
	S41.7,53.6,39.8,53.6L39.8,53.6z M90.7,53.6H70.4v-6.8h20.3V53.6z"/>
</svg>
