<svg xmlns="http://www.w3.org/2000/svg" width="21.301" height="22.138" viewBox="0 0 21.301 22.138">
  <g id="noun_date_2080644" transform="translate(-4.1 -2.4)">
    <g id="Group_367" data-name="Group 367" transform="translate(4.1 2.4)">
      <path id="Path_448" data-name="Path 448" d="M63.994,70.015a.788.788,0,0,0,1.119,0l2.144-2.144a.791.791,0,0,0-1.119-1.119l-1.585,1.585-.583-.583a.791.791,0,0,0-1.119,1.119Z" transform="translate(-48.987 -51.582)" fill="#ec9d00"/>
      <path id="Path_449" data-name="Path 449" d="M23.092,4.567h-1V4.334a1.934,1.934,0,0,0-3.868,0v.233H16.707V4.334a1.934,1.934,0,1,0-3.868,0v.233H11.324V4.334a1.934,1.934,0,1,0-3.868,0v.233h-1A2.347,2.347,0,0,0,4.1,6.921V22.184a2.347,2.347,0,0,0,2.354,2.354H23.045A2.347,2.347,0,0,0,25.4,22.184V6.944A2.3,2.3,0,0,0,23.092,4.567Zm-3.635-.21a.7.7,0,0,1,1.4,0V6.035a.7.7,0,0,1-1.4,0Zm-5.36,0a.7.7,0,1,1,1.4,0V6.035a.7.7,0,1,1-1.4,0Zm-5.383,0a.7.7,0,1,1,1.4,0V6.035a.7.7,0,1,1-1.4,0Zm15.52,17.85a1.144,1.144,0,0,1-1.142,1.142H6.5a1.144,1.144,0,0,1-1.142-1.142V9.857H24.21V22.208Z" transform="translate(-4.1 -2.4)" fill="#ec9d00"/>
      <path id="Path_450" data-name="Path 450" d="M20.306,48.135h2.4a.617.617,0,0,0,.606-.606V45.106a.617.617,0,0,0-.606-.606h-2.4a.617.617,0,0,0-.606.606v2.424A.617.617,0,0,0,20.306,48.135Z" transform="translate(-16.065 -34.689)" fill="#ec9d00"/>
      <path id="Path_451" data-name="Path 451" d="M42.9,48.135h2.4a.617.617,0,0,0,.606-.606V45.106A.617.617,0,0,0,45.3,44.5H42.9a.617.617,0,0,0-.606.606v2.424A.587.587,0,0,0,42.9,48.135Z" transform="translate(-33.394 -34.689)" fill="#ec9d00"/>
      <path id="Path_452" data-name="Path 452" d="M65.406,48.135h2.4a.617.617,0,0,0,.606-.606V45.106a.617.617,0,0,0-.606-.606h-2.4a.617.617,0,0,0-.606.606v2.424A.617.617,0,0,0,65.406,48.135Z" transform="translate(-50.655 -34.689)" fill="#ec9d00"/>
      <path id="Path_453" data-name="Path 453" d="M20.306,70.335h2.4a.617.617,0,0,0,.606-.606V67.306a.617.617,0,0,0-.606-.606h-2.4a.617.617,0,0,0-.606.606v2.424A.617.617,0,0,0,20.306,70.335Z" transform="translate(-16.065 -51.716)" fill="#ec9d00"/>
      <path id="Path_454" data-name="Path 454" d="M42.9,70.335h2.4a.617.617,0,0,0,.606-.606V67.306A.617.617,0,0,0,45.3,66.7H42.9a.617.617,0,0,0-.606.606v2.424A.587.587,0,0,0,42.9,70.335Z" transform="translate(-33.394 -51.716)" fill="#ec9d00"/>
    </g>
  </g>
</svg>
