<?xml version="1.0" encoding="utf-8"?>
<!-- Generator: Adobe Illustrator 23.0.0, SVG Export Plug-In . SVG Version: 6.00 Build 0)  -->
<svg version="1.1" id="Layer_1" xmlns="http://www.w3.org/2000/svg" xmlns:xlink="http://www.w3.org/1999/xlink" x="0px" y="0px"
	 viewBox="0 0 14.4 15.5" style="enable-background:new 0 0 14.4 15.5;" xml:space="preserve">
<style type="text/css">
	.st0{display:none;}
	.st1{display:inline;}
	.st2{fill:#414753;}
	.st3{fill:#1F5EA1;}
</style>
<g class="st0">
	<g class="st1">
		<g>
			<g>
				<path class="st2" d="M16.3,19c1.2,0,2.2,1,2.2,2.2s-1,2.2-2.2,2.2s-2.2-1-2.2-2.2S15.1,19,16.3,19 M16.3,18
					c-1.8,0-3.2,1.5-3.2,3.2s1.4,3.2,3.2,3.2s3.2-1.5,3.2-3.2S18.1,18,16.3,18L16.3,18z"/>
			</g>
		</g>
		<g>
			<g>
				<path class="st2" d="M12.4,26.3l2.2,4.7h-3.8v-2.7C10.8,26.9,11.8,26.5,12.4,26.3 M13.1,25.2c0,0-3.3,0-3.3,3.1s0,3.7,0,3.7h6.4
					L13.1,25.2L13.1,25.2z M16.2,32L16.2,32L16.2,32L16.2,32z"/>
			</g>
		</g>
		<g>
			<g>
				<path class="st2" d="M20.2,26.3c0.7,0.2,1.7,0.6,1.7,2V31H18L20.2,26.3 M19.6,25.2L16.5,32l0,0h6.4c0,0,0-0.7,0-3.7
					S19.6,25.2,19.6,25.2L19.6,25.2z"/>
			</g>
		</g>
		<g>
			<polygon class="st2" points="16.3,25.2 14.1,25.2 16.3,30.2 18.6,25.2 			"/>
		</g>
	</g>
	<g class="st1">
		<g>
			<g>
				<path class="st2" d="M25.4,1c1.2,0,2.2,1,2.2,2.2s-1,2.2-2.2,2.2s-2.2-1-2.2-2.2S24.2,1,25.4,1 M25.4,0c-1.8,0-3.2,1.5-3.2,3.2
					s1.5,3.2,3.2,3.2s3.2-1.5,3.2-3.2S27.2,0,25.4,0L25.4,0z"/>
			</g>
		</g>
		<g>
			<g>
				<path class="st2" d="M21.5,8.3l2.2,4.7h-3.9v-2.7C19.9,8.9,20.9,8.4,21.5,8.3 M22.2,7.2c0,0-3.3,0-3.3,3.1s0,3.7,0,3.7h6.4
					L22.2,7.2L22.2,7.2z M25.3,14L25.3,14L25.3,14L25.3,14z"/>
			</g>
		</g>
		<g>
			<g>
				<path class="st2" d="M29.3,8.3c0.7,0.1,1.7,0.6,1.7,2V13h-3.9L29.3,8.3 M28.7,7.2L25.6,14l0,0H32c0,0,0-0.7,0-3.7
					S28.7,7.2,28.7,7.2L28.7,7.2z"/>
			</g>
		</g>
		<g>
			<polygon class="st2" points="25.4,7.2 23.2,7.2 25.4,12.2 27.7,7.2 			"/>
		</g>
	</g>
	<g class="st1">
		<g>
			<g>
				<path class="st2" d="M6.6,1c1.2,0,2.2,1,2.2,2.2s-1,2.2-2.2,2.2s-2.2-1-2.2-2.2S5.3,1,6.6,1 M6.6,0C4.8,0,3.3,1.5,3.3,3.2
					s1.5,3.2,3.2,3.2S9.8,5,9.8,3.2S8.4,0,6.6,0L6.6,0z"/>
			</g>
		</g>
		<g>
			<g>
				<path class="st2" d="M2.7,8.3L4.8,13H1v-2.7C1,8.9,2,8.4,2.7,8.3 M3.3,7.2c0,0-3.3,0-3.3,3.1S0,14,0,14h6.4L3.3,7.2L3.3,7.2z
					 M6.4,14L6.4,14L6.4,14L6.4,14z"/>
			</g>
		</g>
		<g>
			<g>
				<path class="st2" d="M10.4,8.3c0.7,0.2,1.7,0.6,1.7,2V13H8.3L10.4,8.3 M9.8,7.2L6.7,14l0,0h6.4c0,0,0-0.7,0-3.7S9.8,7.2,9.8,7.2
					L9.8,7.2z"/>
			</g>
		</g>
		<g>
			<polygon class="st2" points="6.6,7.2 4.3,7.2 6.6,12.2 8.8,7.2 			"/>
		</g>
	</g>
</g>
<g>
	<path class="st3" d="M7.1,0.6c-1.8,0-3.2,1.5-3.2,3.2S5.3,7,7.1,7s3.2-1.5,3.2-3.2S9,0.6,7.1,0.6z M7.1,6.1c-1.2,0-2.2-1-2.2-2.2
		s1-2.2,2.2-2.2c1.2,0,2.2,1,2.2,2.2S8.5,6.1,7.1,6.1z"/>
	<path class="st3" d="M0.7,10.9c0,3,0,3.7,0,3.7h6.4L4,7.8C4,7.8,0.7,7.9,0.7,10.9z M1.7,13.6v-2.7c0-1.4,1-1.8,1.7-2l2.2,4.7H1.7z"
		/>
	<path class="st3" d="M13.8,10.9c0-3-3.3-3.1-3.3-3.1l-3.1,6.8h6.4C13.8,14.6,13.8,13.9,13.8,10.9z M12.8,13.6H8.9l2.2-4.7
		c0.7,0.2,1.7,0.6,1.7,2C12.8,10.9,12.8,13.6,12.8,13.6z"/>
	<polygon class="st3" points="5,7.8 7.1,12.8 9.5,7.8 7.1,7.8 	"/>
</g>
</svg>
