<svg xmlns="http://www.w3.org/2000/svg" width="58.771" height="65.301" viewBox="0 0 58.771 65.301">
  <g id="event" transform="translate(-21.332)">
    <g id="Group_209" data-name="Group 209" transform="translate(21.333)">
      <g id="Group_208" data-name="Group 208" transform="translate(0)">
        <path id="Path_350" data-name="Path 350" d="M73.574,6.53H70.309V0h-6.53V6.53H37.658V0h-6.53V6.53H27.863a6.5,6.5,0,0,0-6.5,6.53l-.033,45.711a6.528,6.528,0,0,0,6.53,6.53H73.574a6.528,6.528,0,0,0,6.53-6.53V13.06A6.528,6.528,0,0,0,73.574,6.53Zm0,52.241H27.863V22.855H73.574Z" transform="translate(-21.333)" fill="#ec9d00"/>
        <path id="Path_351" data-name="Path 351" d="M145.19,195.461,141.73,192,125.8,207.934l-6.922-6.922-3.461,3.461L125.8,214.855Z" transform="translate(-101.014 -162.614)" fill="#ec9d00"/>
      </g>
    </g>
  </g>
</svg>
