<svg xmlns="http://www.w3.org/2000/svg" width="76.673" height="70" viewBox="0 0 76.673 70">
  <g id="noun_FAQ_545270" transform="translate(107.2 20.002)">
    <path id="Path_432" data-name="Path 432" d="M54.875,53.036,59.642,57.8a8.273,8.273,0,0,1-8.263,7.786H23.014l-9.376,9.455A2.838,2.838,0,0,1,11.493,76a3.1,3.1,0,0,1-3.1-3.1V65.511a8.342,8.342,0,0,1-6.595-8.1V32.3a8.257,8.257,0,0,1,8.263-8.263h5.006v5.8H10.063A2.493,2.493,0,0,0,7.521,32.3V57.327a2.56,2.56,0,0,0,2.543,2.543h4.132v6.515l6.515-6.515H51.459A2.56,2.56,0,0,0,54,57.327V53.036h.874Zm23.6-38.773V39.291a8.342,8.342,0,0,1-6.595,8.1v7.389a3.539,3.539,0,0,1-.953,2.3,3.8,3.8,0,0,1-2.225.795,3.137,3.137,0,0,1-2.225-.953l-9.3-9.3H28.814a8.257,8.257,0,0,1-8.263-8.263V14.263A8.257,8.257,0,0,1,28.814,6H70.13A8.224,8.224,0,0,1,78.473,14.263ZM51.617,36.272A1.255,1.255,0,0,0,50.346,35H47.009a1.255,1.255,0,0,0-1.271,1.271v2.145a1.255,1.255,0,0,0,1.271,1.271h3.337a1.255,1.255,0,0,0,1.271-1.271Zm6.595-14.7a7.319,7.319,0,0,0-2.384-5.721,9.549,9.549,0,0,0-6.595-2.145,10.156,10.156,0,0,0-6.277,1.827,6.073,6.073,0,0,0-2.3,4.608.817.817,0,0,0,.795.874l3.734.079a1.385,1.385,0,0,0,1.351-.953,2.992,2.992,0,0,1,.715-1.192,2.9,2.9,0,0,1,1.986-.715,2.868,2.868,0,0,1,2.225.874,3.21,3.21,0,0,1,.795,2.384,4.726,4.726,0,0,1-.715,2.543,5.733,5.733,0,0,1-1.827,1.827,12.923,12.923,0,0,0-3.178,2.86,4.954,4.954,0,0,0-.795,2.7.877.877,0,0,0,.953.953h4.052a.944.944,0,0,0,.953-.795,3.8,3.8,0,0,1,.4-1.51,4.042,4.042,0,0,1,1.51-1.589,9.7,9.7,0,0,0,3.337-2.86A6.983,6.983,0,0,0,58.212,21.573Z" transform="translate(-109 -26)" fill="#ec9d00"/>
  </g>
</svg>
