<svg xmlns="http://www.w3.org/2000/svg" width="57.697" height="57.576" viewBox="0 0 57.697 57.576">
  <g id="noun_forum_1871927" transform="translate(50.017 -22)">
    <g id="Group_419" data-name="Group 419" transform="translate(-50.017 22)">
      <g id="Group_410" data-name="Group 410" transform="translate(21.789 31.626)">
        <path id="Path_484" data-name="Path 484" d="M26.638,48.444c.811,2.7,3.064,5.046,5.677,5.046,2.523,0,4.775-2.343,5.586-5.046a3.614,3.614,0,0,0,.9-4.775c2.162-10.092-15.318-10.092-13.155,0A3.643,3.643,0,0,0,26.638,48.444Z" transform="translate(-25.165 -36.1)" fill="#ec9c00"/>
      </g>
      <g id="Group_411" data-name="Group 411" transform="translate(15.499 47.124)">
        <path id="Path_485" data-name="Path 485" d="M37.661,53.3a7.616,7.616,0,0,1-6.127,3.694A7.616,7.616,0,0,1,25.407,53.3c-.811.541-7.569,1.8-7.208,9.641a.889.889,0,0,0,.9.811H43.878a.889.889,0,0,0,.9-.811C45.23,55.192,38.562,53.841,37.661,53.3Z" transform="translate(-18.185 -53.3)" fill="#ec9c00"/>
      </g>
      <g id="Group_412" data-name="Group 412" transform="translate(36.237 44.511)">
        <path id="Path_486" data-name="Path 486" d="M55.977,50.4c-3.064,4.775-8.74,4.866-11.894,0-.811.541-1.352.36-2.883,1.352a10.492,10.492,0,0,1,7.659,8.65H61.744a.889.889,0,0,0,.9-.811C63.005,52.022,56.7,50.76,55.977,50.4Z" transform="translate(-41.2 -50.4)" fill="#ec9c00"/>
      </g>
      <g id="Group_413" data-name="Group 413" transform="translate(38.362 29.799)">
        <path id="Path_487" data-name="Path 487" d="M44.947,45.811a7.121,7.121,0,0,0,3.874,4.505c2.973,1.261,5.947-1.442,6.848-4.505a3.467,3.467,0,0,0,.9-4.6c1.261-5.857-4.6-8.47-9.461-6.487a5.369,5.369,0,0,0-3.064,6.487A3.5,3.5,0,0,0,44.947,45.811Z" transform="translate(-43.559 -34.072)" fill="#ec9c00"/>
      </g>
      <g id="Group_414" data-name="Group 414" transform="translate(5.906 29.779)">
        <path id="Path_488" data-name="Path 488" d="M8.945,45.809c.721,2.433,2.883,4.775,5.316,4.775s4.6-2.343,5.316-4.775a3.467,3.467,0,0,0,.9-4.6c1.982-9.551-14.507-9.551-12.524,0A3.631,3.631,0,0,0,8.945,45.809Z" transform="translate(-7.538 -34.05)" fill="#ec9c00"/>
      </g>
      <g id="Group_415" data-name="Group 415" transform="translate(0 44.421)">
        <path id="Path_489" data-name="Path 489" d="M22.533,51.652A18.648,18.648,0,0,0,19.56,50.3a7.345,7.345,0,0,1-5.947,3.6,7.568,7.568,0,0,1-5.947-3.6c-.9.541-7.028,1.892-6.668,9.1a.889.889,0,0,0,.9.811H14.874C15.6,55.256,18.388,53.634,22.533,51.652Z" transform="translate(-0.983 -50.3)" fill="#ec9c00"/>
      </g>
      <g id="Group_416" data-name="Group 416" transform="translate(37.408 0)">
        <path id="Path_490" data-name="Path 490" d="M46.284,13.254V15.6a.936.936,0,0,0,1.352.811l3.334-1.8c5.5.721,11.8-1.892,11.8-6.758C62.773,4.064,58.268,1,52.592,1S42.5,4.064,42.5,7.848C42.5,10.01,43.942,11.993,46.284,13.254Zm8.109-6.127h1.8v1.8h-1.8Zm-5.406,0h1.8v1.8h-1.8Z" transform="translate(-42.5 -1)" fill="#ec9c00"/>
      </g>
      <g id="Group_417" data-name="Group 417" transform="translate(0.015 0.088)">
        <path id="Path_491" data-name="Path 491" d="M12.8,14.705l3.334,1.8a.906.906,0,0,0,1.352-.811V13.354c2.433-1.261,3.784-3.244,3.784-5.406,0-3.874-4.415-6.848-10.182-6.848C5.415,1.01,1,4.073,1,7.858,1,12.723,7.217,15.336,12.8,14.705Zm.09-7.569h1.8v1.8h-1.8v-1.8Zm-5.406,0h1.8v1.8h-1.8Z" transform="translate(-1 -1.098)" fill="#ec9c00"/>
      </g>
      <g id="Group_418" data-name="Group 418" transform="translate(18.036 15.678)">
        <path id="Path_492" data-name="Path 492" d="M42.625,28.221V20.2a1.807,1.807,0,0,0-1.8-1.8H22.8A1.807,1.807,0,0,0,21,20.2v8.019a1.807,1.807,0,0,0,1.8,1.8h6.217l2.162,2.162a.871.871,0,0,0,1.261,0l2.162-2.162h6.217A1.807,1.807,0,0,0,42.625,28.221ZM30.01,24.978h-1.8v-1.8h1.8Zm5.406,0h-1.8v-1.8h1.8Z" transform="translate(-21 -18.4)" fill="#ec9c00"/>
      </g>
    </g>
  </g>
</svg>
