<svg xmlns="http://www.w3.org/2000/svg" width="67.462" height="54.142" viewBox="0 0 67.462 54.142">
  <g id="Group_216" data-name="Group 216" transform="translate(-12615 634)">
    <g id="partner" transform="translate(12615 -634)">
      <path id="Path_354" data-name="Path 354" d="M393.555,63.1a1.317,1.317,0,1,0-1.863,0A1.318,1.318,0,0,0,393.555,63.1Zm0,0" transform="translate(-339.747 -52.831)" fill="#fff"/>
      <path id="Path_355" data-name="Path 355" d="M115.664,83.813a1.317,1.317,0,1,0-1.863,0A1.318,1.318,0,0,0,115.664,83.813Zm0,0" transform="translate(-98.471 -70.817)" fill="#fff"/>
      <path id="Path_356" data-name="Path 356" d="M56.819,115.395l3.944-3.945a1.318,1.318,0,1,0-1.864-1.863l-3.944,3.945a1.318,1.318,0,0,0,1.864,1.863Zm0,0" transform="translate(-47.38 -94.812)" fill="#fff"/>
      <path id="Path_357" data-name="Path 357" d="M421.505,95.069a1.318,1.318,0,0,0,1.864-1.863l-2.629-2.629a1.318,1.318,0,0,0-1.864,1.863Zm0,0" transform="translate(-363.35 -78.308)" fill="#fff"/>
      <path id="Path_358" data-name="Path 358" d="M67.075,15.292,52.17.385A1.317,1.317,0,0,0,50.335.357c-1.158,1.091-6.6,6.214-6.677,6.291l-.014.013A5.523,5.523,0,0,1,39.53,8.525a10.456,10.456,0,0,0-7.644,2.816A9.812,9.812,0,0,0,25.72,8.685L19.133,2.1a1.318,1.318,0,0,0-1.864,0L.385,18.982a1.315,1.315,0,0,0-.029,1.831l.029.032,11,10.985-.465.465a4.607,4.607,0,0,0,3.309,7.868,4.606,4.606,0,0,0,4.658,4.66,4.6,4.6,0,0,0,4.658,4.657,4.611,4.611,0,0,0,7.871,3.313l.466-.466.466.466a4.611,4.611,0,0,0,7.872-3.31,4.6,4.6,0,0,0,4.656-4.657,4.609,4.609,0,0,0,4.661-4.662,4.607,4.607,0,0,0,3.309-7.868l-.465-.465c9.187-9.176-2.434,2.454,14.691-14.674a1.317,1.317,0,0,0,0-1.863ZM3.181,19.913,18.2,4.893l5.062,5.062L8.246,24.974Zm9.6,17.04a1.976,1.976,0,0,1,0-2.795L17.444,29.5a1.977,1.977,0,0,1,2.795,2.8l-4.657,4.657a1.982,1.982,0,0,1-2.8,0Zm4.659,4.659a1.975,1.975,0,0,1,0-2.8L22.1,34.158a1.976,1.976,0,0,1,2.8,2.794h0l-4.658,4.658a1.978,1.978,0,0,1-2.795,0ZM22.1,46.269a1.975,1.975,0,0,1,0-2.794l4.659-4.659a1.976,1.976,0,0,1,2.795,2.8h0L24.9,46.269a1.981,1.981,0,0,1-2.8,0Zm4.659,4.66a1.975,1.975,0,0,1,0-2.8l4.658-4.658a1.976,1.976,0,1,1,2.8,2.795l-4.658,4.659a1.979,1.979,0,0,1-2.795,0Zm10.248,0a1.978,1.978,0,0,1-2.794,0l-.466-.466,2.329-2.33a4.761,4.761,0,0,0,.431-.5l.5.5h0a1.974,1.974,0,0,1,0,2.8ZM50.986,36.952a1.981,1.981,0,0,1-2.8,0L42.134,30.9A1.318,1.318,0,1,0,40.27,32.76l6.056,6.056a1.976,1.976,0,0,1-2.795,2.8l-6.056-6.057a1.318,1.318,0,0,0-1.864,1.864l6.056,6.057a1.976,1.976,0,0,1-1.4,3.373c-1.252,0-1.656-.986-2.843-2.024a4.609,4.609,0,0,0-4.657-4.563,4.606,4.606,0,0,0-4.659-4.656,4.606,4.606,0,0,0-4.658-4.661,4.611,4.611,0,0,0-7.872-3.309l-2.331,2.331-3.14-3.13,15.508-15.51a7.114,7.114,0,0,1,4.4,1.873l-3.723,3.722a5.271,5.271,0,0,0,7.454,7.453l3.727-3.727L50.985,34.158a1.978,1.978,0,0,1,0,2.794Zm-.465-6.986L39.339,18.785l.932-.932a1.318,1.318,0,0,0-1.864-1.864l-6.522,6.523a2.636,2.636,0,0,1-3.727-3.727l5.366-5.364a7.85,7.85,0,0,1,6.006-2.26,7.737,7.737,0,0,0,4.98-1.746L57.63,22.875l-7.109,7.091Zm8.973-8.955L46.455,7.634l4.757-4.481L64.28,16.224Zm0,0" transform="translate(0.001 0.001)" fill="#fff"/>
    </g>
  </g>
</svg>
