<svg id="noun_Language_2447096" xmlns="http://www.w3.org/2000/svg" width="42.081" height="42.081" viewBox="0 0 42.081 42.081">
  <g id="Group_374" data-name="Group 374">
    <g id="Group_373" data-name="Group 373">
      <rect id="Rectangle_887" data-name="Rectangle 887" width="42.081" height="42.081" fill="none"/>
      <g id="Group_372" data-name="Group 372" transform="translate(2.63 2.63)">
        <path id="Path_456" data-name="Path 456" d="M908.321,173v28.931H892.541l-10.52,7.89v-7.89H871.5V173Zm-9.205,6.575v-2.63h-2.63v2.63h-3.945v2.63h6.517a15.515,15.515,0,0,1-1.606,5.709c-.166-.2-.326-.4-.483-.6a20.15,20.15,0,0,1-1.871-2.936c-.024-.047-.049-.095-.074-.142l-2.338,1.2.078.151.083.158a21.974,21.974,0,0,0,3.167,4.518q-.391.533-.823,1.032a16.613,16.613,0,0,1-1.8,1.786c-.28.238-.571.464-.865.685-.175.126-.175.126-.351.25s-.179.122-.359.242l1.452,2.193a18.975,18.975,0,0,0,4.677-4.379,12.418,12.418,0,0,0,2.113,1.365,10.8,10.8,0,0,0,1.253.529l.871-2.483a7.713,7.713,0,0,1-.809-.33,9.756,9.756,0,0,1-1.979-1.291,18.114,18.114,0,0,0,2.3-7.657h1.366v-2.63Zm-17.1,1.315h-1.734l-5.636,13.15h2.862l.564-1.315.564-1.315H885.4l1.128,2.63h2.861l-5.636-13.15Zm-2.254,7.89h4.508l-2.254-5.26Z" transform="translate(-871.5 -173)" fill="#ec9d00" fill-rule="evenodd"/>
      </g>
    </g>
  </g>
</svg>
