<svg xmlns="http://www.w3.org/2000/svg" width="17.25" height="21.832" viewBox="0 0 17.25 21.832">
  <g id="noun_Location_1553711" transform="translate(-16.5 -5.4)">
    <g id="Group_362" data-name="Group 362" transform="translate(16.5 5.4)">
      <path id="Path_437" data-name="Path 437" d="M39.905,24.3a3.705,3.705,0,1,0,3.705,3.705A3.713,3.713,0,0,0,39.905,24.3Zm0,5.909a2.2,2.2,0,1,1,2.2-2.2A2.206,2.206,0,0,1,39.905,30.209Z" transform="translate(-31.268 -19.568)" fill="#ec9d00"/>
      <path id="Path_438" data-name="Path 438" d="M25.137,5.4A8.55,8.55,0,0,0,16.5,13.837a8.428,8.428,0,0,0,1.7,5.057l5.934,7.836a1.233,1.233,0,0,0,1,.5h0a1.233,1.233,0,0,0,1-.5l5.909-7.861a8.215,8.215,0,0,0,1.7-5.057A8.507,8.507,0,0,0,25.137,5.4Zm5.708,12.593-5.708,7.586L19.4,17.968A6.7,6.7,0,0,1,18,13.837a7.138,7.138,0,0,1,14.271,0A6.847,6.847,0,0,1,30.846,17.993Z" transform="translate(-16.5 -5.4)" fill="#ec9d00"/>
    </g>
  </g>
</svg>
