<svg xmlns="http://www.w3.org/2000/svg" width="40.009" height="40.009" viewBox="0 0 40.009 40.009">
  <g id="noun_Mission_2191323" transform="translate(-7.737 -7.998)">
    <g id="Group_226" data-name="Group 226" transform="translate(7.737 7.998)">
      <path id="Path_363" data-name="Path 363" d="M39.975,33.994a1,1,0,1,0,0-1.994,7.975,7.975,0,1,0,7.975,7.975,1,1,0,1,0-1.994,0,5.981,5.981,0,1,1-5.981-5.981Z" transform="translate(-19.906 -20.036)" fill="#ec9d00"/>
      <path id="Path_364" data-name="Path 364" d="M46.827,22.016a1,1,0,1,0-1.9.6A18.012,18.012,0,1,1,33.132,10.819a1,1,0,1,0,.6-1.9,20,20,0,1,0,13.1,13.1Z" transform="translate(-7.737 -7.998)" fill="#ec9d00"/>
      <path id="Path_365" data-name="Path 365" d="M35.855,21.135a1.078,1.078,0,0,0-1-1.084c-.3-.026-.6-.051-.9-.051A13.957,13.957,0,1,0,47.913,33.957a8.827,8.827,0,0,0-.066-1.078,1,1,0,1,0-1.97.349c.021.241.043.482.043.729A11.963,11.963,0,1,1,33.957,21.994c.247,0,.487.022.728.043l.187.017a.943.943,0,0,0,.983-.918Z" transform="translate(-13.888 -14.018)" fill="#ec9d00"/>
      <path id="Path_366" data-name="Path 366" d="M52.978,18.978v3.575l-6.686,6.686a1,1,0,1,0,1.41,1.41l6.686-6.686h3.575a1,1,0,0,0,.7-.292l5.981-5.981a1,1,0,0,0-.7-1.7H60.954V13a1,1,0,0,0-1.7-.7L53.27,18.274A1,1,0,0,0,52.978,18.978Zm1.994.413L58.96,15.4v1.581a1,1,0,0,0,1,1h1.581L57.55,21.969H54.972Z" transform="translate(-26.928 -10.005)" fill="#ec9d00"/>
    </g>
  </g>
</svg>
