<?xml version="1.0" encoding="utf-8"?>
<!-- Generator: Adobe Illustrator 23.0.0, SVG Export Plug-In . SVG Version: 6.00 Build 0)  -->
<svg version="1.1" id="Group_379" xmlns="http://www.w3.org/2000/svg" xmlns:xlink="http://www.w3.org/1999/xlink" x="0px" y="0px"
	 viewBox="0 0 71 66.7" style="enable-background:new 0 0 71 66.7;" xml:space="preserve">
<style type="text/css">
	.st0{fill:#EC9D00;}
</style>
<path class="st0" d="M70.3,34.3l-11.5-21c-0.5-0.8-1.6-1.2-2.5-0.7L51,15.8c-0.9,0.5-1.2,1.7-0.7,2.6l0.9,1.8
	c-0.6,0.3-1.2,0.4-1.8,0.3c-0.8-0.1-1.6-0.3-2.5-0.6c-3.9-1.1-10.5-2.9-17,0c-1.2,0.5-2.3,1.2-3.3,2.1c-0.4,0-1.1-0.1-1.8-0.2
	l-0.9-0.1c-1.1-0.5-2-1.1-2.9-1.9l0.6-1c0.5-0.9,0.2-2.1-0.7-2.6L15.5,13c-0.4-0.3-1-0.3-1.4-0.2c-0.5,0.1-0.9,0.5-1.1,0.9l-11.5,21
	c-0.2,0.4-0.3,1-0.2,1.4c0.1,0.5,0.4,0.9,0.9,1.2l5.3,3.1c0.3,0.2,0.6,0.2,0.9,0.2c0.2,0,0.3,0,0.6,0c0.5-0.1,0.9-0.5,1.1-0.9
	l0.9-1.6c0.8,1.1,1.7,2.2,2.7,3.2l-0.1,0.1c-0.5,0.7-0.7,1.5-0.7,2.4c0,1.3,0.6,2.6,1.7,3.4c0.6,0.4,1.2,0.7,1.9,0.8
	c0,0.2,0,0.5,0,0.7c0.2,1.1,0.8,2,1.6,2.7c0.7,0.5,1.5,0.8,2.3,0.8c0,0,0,0,0,0c0.3,0,0.5,0,0.7-0.1c0.3,0.9,0.8,1.6,1.6,2.2
	c0.9,0.6,1.9,0.8,3,0.6c0,0,0.1,0,0.1,0c0.3,0.8,0.8,1.4,1.4,1.9c0.7,0.5,1.5,0.7,2.3,0.8l0.7,0c0.9-0.2,1.8-0.7,2.4-1.4
	c1.9,1,4.1,1.5,6.3,1.7c0.9,0,1.7-0.2,2.5-0.5c1.3-0.4,2.4-1.3,3.1-2.5h0.3c1.1,0,2.2-0.3,3.1-1c1-0.7,1.6-1.7,2-2.9
	c1.1-0.2,2.1-0.8,2.8-1.6c0.5-0.6,0.9-1.3,1.2-2.1c1.4-0.2,2.7-1,3.6-2.1c0.6-1,0.8-2.2,0.6-3.3c-0.1-0.3-0.2-0.6-0.3-0.9
	c1.3-0.7,2.4-1.6,3.4-2.7l0.7,1.2c0.2,0.4,0.6,0.8,1.2,0.9c0.2,0,0.3,0,0.5,0c0.3,0,0.6-0.1,0.9-0.3l5.3-3.1
	c0.4-0.3,0.7-0.7,0.9-1.2C70.6,35.2,70.5,34.7,70.3,34.3z M18.7,18.1L9.6,34.7L8,37.4l-3.7-2.1L15,15.9L18.7,18.1z M40.8,38.2
	c-0.4,0.6-0.2,1.5,0.4,1.9l9.8,6.4c-0.2,0.3-0.3,0.6-0.6,0.9c-0.4,0.5-1,0.7-1.6,0.8l-9.1-5.3c-0.3-0.2-0.7-0.2-1.1-0.1
	c-0.4,0.1-0.7,0.3-0.8,0.7c-0.4,0.7-0.1,1.5,0.5,1.9l8.5,4.9c-0.2,0.5-0.5,0.9-0.9,1.2c-0.6,0.4-1.4,0.6-2.2,0.4l0,0
	c0,0-0.1-0.1-0.1-0.1l-7.1-3.7c-0.3-0.1-0.7-0.2-1.1,0c-0.3,0.1-0.6,0.4-0.8,0.8c0,0,0,0,0,0c-0.6-1.1-1.6-1.9-2.8-2.1
	c0.1-0.4,0.1-0.9,0-1.4c-0.2-1.1-0.8-2-1.6-2.7c-0.6-0.4-1.3-0.7-2-0.8c0-0.2,0-0.4,0-0.7c-0.2-1.1-0.8-2.1-1.7-2.7
	c-0.9-0.6-1.9-0.8-3-0.6c-0.8,0.2-1.6,0.6-2.2,1.2c-0.2-0.4-0.6-0.7-0.9-0.9c-0.9-0.6-1.9-0.9-3-0.7c-0.9,0.2-1.8,0.6-2.4,1.4
	c-1-1.1-2-2.3-2.9-3.5l7.2-13.1c1.1,1,2.4,1.7,3.8,2.2l1,0.1c-0.7,1.1-1.2,2.4-1.5,3.7c-0.4,1.5,0.1,3.2,1.2,4.3
	c1,1.1,2.5,1.6,4,1.2c1.5-0.3,2.8-1.1,3.7-2.3l1.7-2.3l2.1-0.6c6.9,3.2,13.2,7.4,18.8,12.6l0.1,0.1h0.1c0,0,0.1,0,0.1,0.1
	c0.3,0.2,0.4,0.5,0.5,0.8c0.1,0.4,0,0.8-0.2,1.2c-0.5,0.6-1.3,0.9-2,1l-10.3-6.7c-0.3-0.2-0.7-0.3-1-0.2
	C41.3,37.7,41,37.9,40.8,38.2z M28.5,52.6l1.8-2.6c0.4-0.5,1.2-0.7,1.7-0.3c0.6,0.4,0.7,1.2,0.3,1.8l-1.6,2.3
	c-0.2,0.3-0.6,0.4-0.9,0.4c-0.3,0-0.7-0.1-0.9-0.4C28.5,53.6,28.3,53.1,28.5,52.6z M19.7,49.4c-0.6-0.3-0.9-1.1-0.7-1.8
	c0.1-0.2,0.2-0.3,0.4-0.5l4-5.8c0.2-0.3,0.5-0.5,0.8-0.6c0.1,0,0.2,0,0.3,0c0.2,0,0.4,0.1,0.6,0.2c0.3,0.2,0.5,0.5,0.5,0.8
	c0.1,0.3,0,0.7-0.2,1l-3.8,5.6l-0.2,0.3l-0.1,0.1c-0.1,0.3-0.4,0.6-0.7,0.7C20.3,49.5,20,49.5,19.7,49.4z M15.8,43l1.4-2.1
	c0.3-0.3,0.6-0.5,1-0.5c0.2,0,0.5,0.1,0.7,0.2c0.5,0.4,0.7,1.1,0.4,1.6l-1.6,2.3c-0.4,0.5-1.1,0.7-1.7,0.3
	C15.6,44.4,15.4,43.6,15.8,43z M23.5,50.4c0.1-0.2,0.2-0.3,0.3-0.5l3.2-4.7c0.2-0.3,0.5-0.4,0.9-0.4c0,0,0.1,0,0.1,0
	c0.3,0,0.6,0.1,0.8,0.3c0.2,0.2,0.4,0.4,0.4,0.7c0.1,0.3,0,0.7-0.2,1l-3.1,4.6l-0.1,0.1c-0.1,0.3-0.4,0.6-0.7,0.7
	c-0.3,0.1-0.6,0.1-0.9,0C23.5,51.9,23.2,51.1,23.5,50.4z M34.5,53.2c0.5-0.8,0.8-1.7,0.7-2.6c0,0,0.1,0.1,0.1,0.1l6.2,3.2
	c-0.3,0.3-0.7,0.6-1.1,0.7c-2.1,0.4-4.4,0.1-6.3-1L34.5,53.2z M36.2,25.8c-0.1,0-0.2,0-0.4,0c-0.1,0-0.2,0-0.3,0c-0.1,0-0.3,0-0.5,0
	l-2.8,0.8c-0.4,0.1-0.7,0.4-1,0.7l-1.7,2.5c-0.5,0.7-1.3,1.1-2.1,1.3C27,31.2,26.4,31,26,30.6c-0.4-0.4-0.6-1.1-0.5-1.7
	c0.4-1.7,1.2-3.2,2.5-4.3c0.9-0.8,1.9-1.5,3.1-2c5.6-2.5,11.6-0.9,15.2,0.1c0.9,0.3,1.9,0.5,2.9,0.7c1.2,0.1,2.4-0.1,3.4-0.7
	l7.1,12.8c-1,1.4-2.3,2.4-3.8,3.1C50,33.3,43.4,29,36.2,25.8L36.2,25.8z M67.5,35l-3.7,2.2L53.1,17.8l3.7-2.3L67.5,35z"/>
</svg>
