<?xml version="1.0" encoding="utf-8"?>
<!-- Generator: Adobe Illustrator 23.0.0, SVG Export Plug-In . SVG Version: 6.00 Build 0)  -->
<svg version="1.1" id="Group_379" xmlns="http://www.w3.org/2000/svg" xmlns:xlink="http://www.w3.org/1999/xlink" x="0px" y="0px"
	 viewBox="0 0 71 66.7" style="enable-background:new 0 0 71 66.7;" xml:space="preserve">
<style type="text/css">
	.st0{fill:#CECECE;}
	.st1{fill:#EC9D00;}
	.st2{fill:#FFFFFF;}
</style>
<polygon class="st0" points="61.6,34.9 58.2,29.9 59.4,24 54.4,20.7 53.2,14.8 47.3,13.7 44,8.6 38.1,9.8 33.1,6.4 28.2,9.8 
	22.2,8.6 18.9,13.7 13,14.8 11.9,20.7 6.8,24 8.1,29.9 4.7,34.9 8.1,39.9 6.8,45.8 11.9,49.1 13,55 18.9,56.1 22.2,61.2 28.2,59.9 
	33.1,63.3 38.1,59.9 44,61.2 47.3,56.1 53.2,55 54.4,49.1 59.4,45.8 58.2,39.9 "/>
<g>
	<polygon class="st1" points="63,32.9 59.6,27.9 60.9,22 55.8,18.7 54.7,12.7 48.8,11.6 45.5,6.6 39.6,7.8 34.6,4.4 29.6,7.8 
		23.7,6.6 20.4,11.6 14.5,12.7 13.4,18.7 8.3,22 9.5,27.9 6.1,32.9 9.5,37.8 8.3,43.8 13.4,47.1 14.5,53 20.4,54.1 23.7,59.1 
		29.6,57.9 34.6,61.3 39.6,57.9 45.5,59.1 48.8,54.1 54.7,53 55.8,47.1 60.9,43.8 59.6,37.8 	"/>
	<path class="st2" d="M55.1,33.3l-6.9-12.5c-0.3-0.5-0.9-0.7-1.5-0.4l-3.2,1.9c-0.5,0.3-0.7,1-0.4,1.5l0.5,1.1
		c-0.3,0.2-0.7,0.2-1.1,0.2c-0.5-0.1-1-0.2-1.5-0.4c-2.3-0.6-6.3-1.7-10.1,0c-0.7,0.3-1.4,0.7-2,1.2c-0.3,0-0.7-0.1-1.1-0.1
		l-0.5-0.1c-0.6-0.3-1.2-0.6-1.7-1.1L26,24c0.3-0.5,0.1-1.2-0.4-1.6l-3.2-1.9c-0.3-0.2-0.6-0.2-0.8-0.1c-0.3,0.1-0.5,0.3-0.7,0.5
		l-6.9,12.5c-0.1,0.3-0.2,0.6-0.1,0.9c0.1,0.3,0.3,0.6,0.5,0.7l3.2,1.9c0.2,0.1,0.4,0.1,0.5,0.1c0.1,0,0.2,0,0.3,0
		c0.3-0.1,0.5-0.3,0.7-0.5l0.5-0.9c0.5,0.7,1,1.3,1.6,1.9l0,0.1C21,38,20.8,38.5,20.8,39c0,0.8,0.4,1.5,1,2c0.3,0.3,0.7,0.4,1.1,0.5
		c0,0.1,0,0.3,0,0.4c0.1,0.6,0.5,1.2,1,1.6c0.4,0.3,0.9,0.5,1.4,0.5c0,0,0,0,0,0c0.2,0,0.3,0,0.4,0c0.2,0.5,0.5,1,1,1.3
		c0.5,0.4,1.2,0.5,1.8,0.4c0,0,0,0,0.1,0c0.2,0.4,0.5,0.8,0.8,1.1c0.4,0.3,0.9,0.4,1.4,0.4l0.4,0c0.6-0.1,1.1-0.4,1.4-0.8
		c1.2,0.6,2.4,0.9,3.7,1c0.5,0,1-0.1,1.5-0.3c0.8-0.2,1.4-0.8,1.8-1.5h0.2c0.7,0,1.3-0.2,1.8-0.6c0.6-0.4,1-1,1.2-1.7
		c0.7-0.1,1.2-0.5,1.7-1c0.3-0.4,0.6-0.8,0.7-1.2c0.8-0.1,1.6-0.6,2.1-1.3c0.4-0.6,0.5-1.3,0.3-2c0-0.2-0.1-0.4-0.2-0.5
		c0.8-0.4,1.5-1,2-1.6l0.4,0.7c0.1,0.3,0.4,0.5,0.7,0.6c0.1,0,0.2,0,0.3,0c0.2,0,0.4-0.1,0.5-0.1l3.2-1.9c0.3-0.2,0.4-0.4,0.5-0.7
		C55.3,33.8,55.2,33.6,55.1,33.3z M24.4,23.7l-5.5,9.9L18,35.1l-2.2-1.2l6.4-11.5L24.4,23.7z M37.5,35.6c-0.2,0.4-0.1,0.9,0.3,1.2
		l5.9,3.8c-0.1,0.2-0.2,0.4-0.3,0.5c-0.2,0.3-0.6,0.4-0.9,0.5l-5.4-3.1c-0.2-0.1-0.4-0.1-0.6-0.1c-0.2,0.1-0.4,0.2-0.5,0.4
		c-0.2,0.4-0.1,0.9,0.3,1.1l5.1,2.9c-0.1,0.3-0.3,0.5-0.5,0.7c-0.4,0.3-0.9,0.3-1.3,0.2l0,0c0,0,0,0-0.1-0.1L35,41.5
		c-0.2-0.1-0.4-0.1-0.6,0c-0.2,0.1-0.4,0.2-0.5,0.5c0,0,0,0,0,0c-0.3-0.6-0.9-1.1-1.6-1.3c0-0.3,0-0.5,0-0.8c-0.1-0.6-0.4-1.2-1-1.6
		c-0.3-0.3-0.7-0.4-1.2-0.4c0-0.1,0-0.3,0-0.4c-0.1-0.7-0.5-1.2-1-1.6c-0.5-0.4-1.2-0.5-1.8-0.4c-0.5,0.1-0.9,0.4-1.3,0.7
		c-0.1-0.2-0.3-0.4-0.5-0.5c-0.5-0.4-1.1-0.5-1.8-0.4c-0.6,0.1-1.1,0.4-1.4,0.8c-0.6-0.7-1.2-1.4-1.7-2.1l4.3-7.8
		c0.6,0.6,1.4,1,2.3,1.3l0.6,0.1c-0.4,0.7-0.7,1.4-0.9,2.2c-0.2,0.9,0.1,1.9,0.7,2.5c0.6,0.7,1.5,0.9,2.4,0.7
		c0.9-0.2,1.7-0.7,2.2-1.4l1-1.4l1.3-0.3c4.1,1.9,7.9,4.4,11.2,7.5l0.1,0.1h0.1c0,0,0,0,0,0c0.2,0.1,0.3,0.3,0.3,0.5
		c0.1,0.2,0,0.5-0.1,0.7c-0.3,0.3-0.8,0.5-1.2,0.6l-6.1-4c-0.2-0.1-0.4-0.2-0.6-0.1C37.8,35.3,37.6,35.4,37.5,35.6z M30.2,44.2
		l1-1.5c0.2-0.3,0.7-0.4,1-0.2c0.3,0.3,0.4,0.7,0.2,1.1l-1,1.4c-0.1,0.1-0.3,0.2-0.5,0.2c-0.2,0-0.4-0.1-0.5-0.2
		C30.2,44.8,30.1,44.5,30.2,44.2z M24.9,42.3c-0.4-0.2-0.6-0.6-0.4-1c0-0.1,0.1-0.2,0.2-0.3l2.4-3.5c0.1-0.2,0.3-0.3,0.5-0.4
		c0.1,0,0.1,0,0.2,0c0.1,0,0.3,0,0.4,0.1c0.2,0.1,0.3,0.3,0.3,0.5c0,0.2,0,0.4-0.1,0.6l-2.3,3.3l-0.1,0.2l0,0.1
		c-0.1,0.2-0.2,0.3-0.4,0.4C25.3,42.4,25.1,42.4,24.9,42.3z M22.6,38.5l0.9-1.3c0.1-0.2,0.4-0.3,0.6-0.3c0.1,0,0.3,0,0.4,0.1
		c0.3,0.2,0.4,0.6,0.3,0.9l-1,1.4c-0.2,0.3-0.7,0.4-1,0.2C22.5,39.3,22.4,38.8,22.6,38.5z M27.2,42.9c0-0.1,0.1-0.2,0.2-0.3l1.9-2.8
		c0.1-0.2,0.3-0.3,0.5-0.3c0,0,0,0,0,0c0.2,0,0.4,0.1,0.5,0.2c0.1,0.1,0.2,0.3,0.2,0.4c0,0.2,0,0.4-0.1,0.6l-1.9,2.7l0,0.1
		c-0.1,0.2-0.2,0.3-0.4,0.4C28,44,27.8,44,27.6,44C27.2,43.8,27,43.3,27.2,42.9z M33.8,44.5c0.3-0.5,0.5-1,0.4-1.6
		c0,0,0.1,0,0.1,0.1L38,45c-0.2,0.2-0.4,0.3-0.6,0.4c-1.3,0.2-2.6,0-3.7-0.6L33.8,44.5z M34.8,28.2c-0.1,0-0.1,0-0.2,0
		c-0.1,0-0.1,0-0.2,0c-0.1,0-0.2,0-0.3,0l-1.6,0.4c-0.2,0.1-0.4,0.2-0.6,0.4l-1,1.5c-0.3,0.4-0.8,0.7-1.3,0.8
		c-0.3,0.1-0.6,0-0.9-0.3c-0.3-0.3-0.4-0.6-0.3-1c0.2-1,0.7-1.9,1.5-2.6c0.5-0.5,1.2-0.9,1.8-1.2c3.3-1.5,6.9-0.5,9,0.1
		c0.6,0.2,1.1,0.3,1.7,0.4c0.7,0.1,1.4-0.1,2-0.4l4.2,7.6c-0.6,0.8-1.4,1.4-2.3,1.8C43,32.7,39.1,30.2,34.8,28.2L34.8,28.2z
		 M53.4,33.7L51.1,35l-6.3-11.5l2.2-1.3L53.4,33.7z"/>
</g>
</svg>
