<?xml version="1.0" encoding="utf-8"?>
<!-- Generator: Adobe Illustrator 23.0.0, SVG Export Plug-In . SVG Version: 6.00 Build 0)  -->
<svg version="1.1" id="Layer_1" xmlns="http://www.w3.org/2000/svg" xmlns:xlink="http://www.w3.org/1999/xlink" x="0px" y="0px"
	 viewBox="0 0 158.4 13" style="enable-background:new 0 0 158.4 13;" xml:space="preserve">
<style type="text/css">
	.st0{fill:#FFFFFF;}
</style>
<g id="Group_37" transform="translate(-501 -984.608)">
	<g id="sepreator" transform="translate(501 984.608)">
		<g id="Group_35" transform="translate(80.81 0)">
			<path id="Path_218" class="st0" d="M6.2,0L4.8,1.3v7.6L0,12.9h0.6l5.6-4L6.2,0z"/>
			<path id="Path_219" class="st0" d="M8.8,1.5l-1.4,1v7.3l-5.1,3.2h0.4l6.1-2.6L8.8,1.5z"/>
			<path id="Path_220" class="st0" d="M5.9,12.8l5.1-1.5V4.2L9.9,5v5.9l-4.7,2L5,13h72.6v-0.2L5.9,12.8z"/>
		</g>
		<g id="Group_36" transform="translate(0 0)">
			<path id="Path_221" class="st0" d="M72.7,1.3L71.4,0v8.9l5.6,4h0.6l-4.8-4.1V1.3z"/>
			<path id="Path_222" class="st0" d="M70.1,2.4l-1.4-1v8.9l6.1,2.6h0.4l-5.1-3.2L70.1,2.4z"/>
			<path id="Path_223" class="st0" d="M67.6,10.9V5l-1-0.7v7.1l5.1,1.5H0V13h72.6l-0.2-0.1L67.6,10.9z"/>
		</g>
	</g>
</g>
</svg>
