<svg id="Group_379" data-name="Group 379" xmlns="http://www.w3.org/2000/svg" width="70.952" height="66.69" viewBox="0 0 70.952 66.69">
  <g id="information" transform="translate(28.96)">
    <g id="Group_378" data-name="Group 378" transform="translate(0)">
      <g id="Group_377" data-name="Group 377">
        <path id="Path_457" data-name="Path 457" d="M192.173,108.809a3.762,3.762,0,0,0,.207.38c.069.1.173.207.242.311a3.11,3.11,0,0,0,.345.311,1.163,1.163,0,0,0,.414.207,1.709,1.709,0,0,0,.449.138,2.123,2.123,0,0,0,.449.035,1.968,1.968,0,0,0,.449-.035,1.236,1.236,0,0,0,.38-.138h.035a2.573,2.573,0,0,0,.414-.242,2.232,2.232,0,0,0,.311-.276l.035-.035a1.9,1.9,0,0,0,.242-.311,1.08,1.08,0,0,0,.173-.345c0-.035,0-.035.035-.069a2.232,2.232,0,0,0,.138-.449,2.932,2.932,0,0,0,0-.9,3.2,3.2,0,0,0-.138-.449,1.958,1.958,0,0,0-.414-.621l-.069-.069a3.018,3.018,0,0,0-.345-.276c-.138-.069-.242-.138-.38-.207a1.945,1.945,0,0,0-.414-.138,2.123,2.123,0,0,0-.449-.035,1.967,1.967,0,0,0-.449.035,1.945,1.945,0,0,0-.414.138h-.035a3.763,3.763,0,0,0-.38.207,3.017,3.017,0,0,0-.345.276,2.232,2.232,0,0,0-.276.311,3.761,3.761,0,0,0-.207.38,1.946,1.946,0,0,0-.138.414,2.123,2.123,0,0,0-.035.449,1.968,1.968,0,0,0,.035.449A3.131,3.131,0,0,0,192.173,108.809Z" transform="translate(-175.437 -96.49)" fill="#ec9d00"/>
        <path id="Path_458" data-name="Path 458" d="M183.811,190.151h-.794V181.7a.891.891,0,0,0-.9-.9H178.5a.891.891,0,0,0-.9.9v1.863a.891.891,0,0,0,.9.9h.725v5.728H178.5a.891.891,0,0,0-.9.9v1.863a.891.891,0,0,0,.9.9h5.314a.891.891,0,0,0,.9-.9v-1.863A.921.921,0,0,0,183.811,190.151Z" transform="translate(-162.279 -165.203)" fill="#ec9d00"/>
        <path id="Path_459" data-name="Path 459" d="M18.875,0A18.875,18.875,0,1,0,37.75,18.875,18.879,18.879,0,0,0,18.875,0Zm0,35.265a16.39,16.39,0,1,1,16.391-16.39A16.405,16.405,0,0,1,18.875,35.265Z" fill="#ec9d00"/>
      </g>
    </g>
  </g>
  <g id="noun_help_2615086" transform="translate(0 30.425)">
    <path id="Path_460" data-name="Path 460" d="M6.577,49H29.2a9.318,9.318,0,0,1,6.938,3.075L49.306,66.344H60.973c5.2,0,7.1,3,7.1,5.518a4.761,4.761,0,0,1-.552,2.365h2.917a5.518,5.518,0,1,1,0,11.037h-33.9a.591.591,0,0,1-.394-.079h-.079c-.158-.079-.237-.079-.394-.158h0L18.639,72.651H6.577A1.581,1.581,0,0,1,5,71.074v-20.5A1.581,1.581,0,0,1,6.577,49Zm54.4,20.5H51.907a6.037,6.037,0,0,1,.552,2.917,6.818,6.818,0,0,1-.473,1.813H62.55a2.372,2.372,0,0,0,2.365-2.365C64.915,69.734,62.156,69.5,60.973,69.5Zm-44.936,0h3.469c.079,0,.158,0,.158.079a.244.244,0,0,1,.158.079c.079.079.079,0,.158.079.079,0,.079.079.158.079h0l16.95,12.3H70.434A2.372,2.372,0,0,0,72.8,79.746a2.323,2.323,0,0,0-2.365-2.365H46.468a5.561,5.561,0,0,1-3.705-1.813L28.651,60.195a1.562,1.562,0,1,1,2.286-2.129l14.19,15.373a2.455,2.455,0,0,0,3.311.394,2.394,2.394,0,0,0,.946-1.656,2.163,2.163,0,0,0-.631-1.813L33.933,54.282a6.513,6.513,0,0,0-4.651-2.05H16.037Zm-7.884,0h4.73V52.153H8.153Z" transform="translate(-5 -49)" fill="#ec9d00"/>
  </g>
</svg>
