<svg xmlns="http://www.w3.org/2000/svg" width="40.723" height="40.722" viewBox="0 0 40.723 40.722">
  <g id="noun_Speaker_1634714" transform="translate(0 0)">
    <path id="Path_455" data-name="Path 455" d="M38.177,40H35.314V35.886a.638.638,0,0,0-.085-.318l-2.9-5.029a1.628,1.628,0,0,0,.2-1.976L31.44,26.8a1.7,1.7,0,0,0-2.306-.564,1.654,1.654,0,0,0-.772,1.033,1.635,1.635,0,0,0,.2,1.259l1.083,1.761a1.692,1.692,0,0,0,1.444.8c.029,0,.057,0,.086-.006l2.868,4.971V40H31.5V37.184c0-3.642-3.08-6.774-6.883-8.173a6.979,6.979,0,0,1-8.5,0c-3.8,1.4-6.883,4.531-6.883,8.173V40H6.681V36.057l2.868-4.971c.029,0,.057.006.086.006a1.692,1.692,0,0,0,1.444-.8l1.083-1.761a1.636,1.636,0,0,0,.2-1.26,1.654,1.654,0,0,0-.772-1.033,1.7,1.7,0,0,0-2.306.564L8.2,28.564a1.628,1.628,0,0,0,.2,1.976l-2.9,5.029a.638.638,0,0,0-.085.318V40H2.545a2.247,2.247,0,1,0,0,4.454H5.408V55.908a2.545,2.545,0,0,0,2.545,2.545H32.769a2.545,2.545,0,0,0,2.545-2.545V44.455h2.863a2.247,2.247,0,1,0,0-4.454Zm0,3.181H2.545c-.678,0-1.273-.446-1.273-.954s.595-.954,1.273-.954H38.177c.678,0,1.273.446,1.273.954S38.855,43.182,38.177,43.182Z" transform="translate(0 -17.73)" fill="#ec9d00"/>
    <circle id="Ellipse_41" data-name="Ellipse 41" cx="5.727" cy="5.727" r="5.727" transform="translate(14.635 0)" fill="#ec9d00"/>
  </g>
</svg>
