<svg xmlns="http://www.w3.org/2000/svg" width="22.5" height="22.5" viewBox="0 0 22.5 22.5">
  <g id="noun_Time_2630722" transform="translate(-2 -2.5)">
    <g id="Group_366" data-name="Group 366" transform="translate(2 2.5)">
      <path id="Path_446" data-name="Path 446" d="M13.75,2.5A11.25,11.25,0,1,0,25,13.75,11.26,11.26,0,0,0,13.75,2.5Zm0,20.487a9.237,9.237,0,1,1,9.237-9.237A9.249,9.249,0,0,1,13.75,22.987Z" transform="translate(-2.5 -2.5)" fill="#ec9d00"/>
      <path id="Path_447" data-name="Path 447" d="M51.413,28.324H47.789V23.895a.995.995,0,0,0-1.989,0v5.424a1,1,0,0,0,.995.995h4.618a1,1,0,0,0,.995-.995A.986.986,0,0,0,51.413,28.324Z" transform="translate(-35.545 -18.068)" fill="#ec9d00"/>
    </g>
  </g>
</svg>
