<svg xmlns="http://www.w3.org/2000/svg" width="43.275" height="43.275" viewBox="0 0 43.275 43.275">
  <g id="noun_Vision_2198130" transform="translate(-9.5 -9.5)">
    <path id="Path_367" data-name="Path 367" d="M50.057,14.33v-3.8a.528.528,0,1,0-1.057,0v3.8a.528.528,0,1,0,1.057,0Z" transform="translate(-18.391)" fill="#ec9d00" stroke="#ec9d00" stroke-width="1"/>
    <path id="Path_368" data-name="Path 368" d="M22.268,23.015a.528.528,0,0,0,.747-.747L20.327,19.58a.528.528,0,1,0-.747.747Z" transform="translate(-4.444 -4.444)" fill="#ec9d00" stroke="#ec9d00" stroke-width="1"/>
    <path id="Path_369" data-name="Path 369" d="M10.528,50.057h3.8a.528.528,0,1,0,0-1.057h-3.8a.528.528,0,1,0,0,1.057Z" transform="translate(0 -18.391)" fill="#ec9d00" stroke="#ec9d00" stroke-width="1"/>
    <path id="Path_370" data-name="Path 370" d="M19.58,77.078a.528.528,0,0,0,.747,0l2.688-2.688a.528.528,0,0,0-.747-.747L19.58,76.331A.528.528,0,0,0,19.58,77.078Z" transform="translate(-4.444 -29.938)" fill="#ec9d00" stroke="#ec9d00" stroke-width="1"/>
    <path id="Path_371" data-name="Path 371" d="M49,81.334v3.8a.528.528,0,1,0,1.057,0v-3.8a.528.528,0,1,0-1.057,0Z" transform="translate(-18.391 -33.389)" fill="#ec9d00" stroke="#ec9d00" stroke-width="1"/>
    <path id="Path_372" data-name="Path 372" d="M76.331,77.078a.528.528,0,0,0,.747-.747L74.39,73.643a.528.528,0,0,0-.747.747Z" transform="translate(-29.938 -29.938)" fill="#ec9d00" stroke="#ec9d00" stroke-width="1"/>
    <path id="Path_373" data-name="Path 373" d="M85.136,49h-3.8a.528.528,0,1,0,0,1.057h3.8a.528.528,0,1,0,0-1.057Z" transform="translate(-33.389 -18.391)" fill="#ec9d00" stroke="#ec9d00" stroke-width="1"/>
    <path id="Path_374" data-name="Path 374" d="M77.078,19.58a.528.528,0,0,0-.747,0l-2.688,2.688a.528.528,0,1,0,.747.747l2.688-2.688A.528.528,0,0,0,77.078,19.58Z" transform="translate(-29.938 -4.444)" fill="#ec9d00" stroke="#ec9d00" stroke-width="1"/>
    <path id="Path_375" data-name="Path 375" d="M46.086,42.168a4.16,4.16,0,1,0,4.166,4.16A4.168,4.168,0,0,0,46.086,42.168Zm0,7.262a3.1,3.1,0,1,1,3.109-3.1A3.11,3.11,0,0,1,46.086,49.431Z" transform="translate(-15.052 -15.169)" fill="#ec9d00" stroke="#ec9d00" stroke-width="1"/>
    <path id="Path_376" data-name="Path 376" d="M51.153,43.543a.529.529,0,0,0,0-.658c-.238-.3-5.912-7.321-13.079-7.321H38.05l-.035,0c-7.14.039-12.784,7.021-13.021,7.319a.529.529,0,0,0,0,.658c.22.276,5.072,6.276,11.455,7.2a7.506,7.506,0,0,0,2.988.038C45.949,49.987,50.931,43.822,51.153,43.543ZM38.074,49.807a10.107,10.107,0,0,1-1.432-.106,6.613,6.613,0,0,1,1.38-13.078h.037a6.615,6.615,0,0,1,1.349,13.093A10.065,10.065,0,0,1,38.074,49.807Zm11.973-6.593a23.656,23.656,0,0,1-6.119,4.959,7.628,7.628,0,0,0-.084-9.964A23.594,23.594,0,0,1,50.047,43.213Zm-23.947,0a23.66,23.66,0,0,1,6.112-4.955,7.637,7.637,0,0,0-.084,9.865A23.717,23.717,0,0,1,26.1,43.213Z" transform="translate(-7.016 -12.055)" fill="#ec9d00" stroke="#ec9d00" stroke-width="1"/>
  </g>
</svg>
