<svg xmlns="http://www.w3.org/2000/svg" width="51.6" height="58.238" viewBox="0 0 51.6 58.238">
  <path id="Path_348" data-name="Path 348" d="M442.821,70.669h0a4.014,4.014,0,0,0,1.768-3.33v-25.2a4.017,4.017,0,0,0-1.767-3.33h0a4.413,4.413,0,0,0-.47-.271L421.18,26.408h-.007a4,4,0,0,0-4.766,0H416.4l-21.171,12.13a3.883,3.883,0,0,0-.472.271h0a4.014,4.014,0,0,0-1.767,3.33v25.2a4.017,4.017,0,0,0,1.767,3.33h0a4.438,4.438,0,0,0,.472.271L416.4,83.07h.007a4,4,0,0,0,4.766,0h.007l21.171-12.13A3.733,3.733,0,0,0,442.821,70.669Zm-44.7-1.721a3.559,3.559,0,0,1-.413-.238h0a3.523,3.523,0,0,1-1.549-2.92V43.684a3.525,3.525,0,0,1,1.549-2.92h0a3.542,3.542,0,0,1,.413-.236l5.75-3.294a2.829,2.829,0,0,1,1.414,2.068,20.212,20.212,0,0,1,.106,2.767V65.483a11.367,11.367,0,0,1-.347,3.672q-.716,1.451-3.69,1.646Zm22.76,10.64h-.005a3.506,3.506,0,0,1-4.18,0h-.005l-13.516-7.745h15.669V70.83a8.491,8.491,0,0,1-3.383-.454,2.82,2.82,0,0,1-1.518-2.132,20.259,20.259,0,0,1-.106-2.772V55.346h2.372l11.642,16.5H434.4Zm-7.046-26.1V37.629H416.7q8.172,0,8.171,8.089a9,9,0,0,1-1.042,4.618,5.915,5.915,0,0,1-3.712,2.723,19.833,19.833,0,0,1-4.753.426Zm27.579-1.977V65.792a3.525,3.525,0,0,1-1.549,2.92h0a3.561,3.561,0,0,1-.413.238l-2.271,1.3a4.036,4.036,0,0,1-.488-.326,16.834,16.834,0,0,1-2.425-2.955l-8.685-12.225q8.018-2,8.019-9.078a9.016,9.016,0,0,0-1.917-5.724,10.969,10.969,0,0,0-6.655-3.753,45.65,45.65,0,0,0-7.88-.479h-10.62l10.159-5.821h.005a4.032,4.032,0,0,1,2.09-.691,3.989,3.989,0,0,1,2.09.691h.005l18.569,10.64a3.541,3.541,0,0,1,.413.236h0a3.523,3.523,0,0,1,1.549,2.92v7.82Z" transform="translate(-392.99 -25.62)" fill="#ec9d00"/>
</svg>
